<svg viewBox="0 0 600 420" xmlns="http://www.w3.org/2000/svg">
  <defs>
    <linearGradient id="sky2" x1="0" y1="0" x2="0" y2="1">
      <stop offset="0%" stop-color="#FECACA"/>
      <stop offset="100%" stop-color="#FEF2F2"/>
    </linearGradient>
  </defs>
  <rect width="600" height="420" fill="url(#sky2)"/>
  <rect y="330" width="600" height="90" fill="#86EFAC"/>
  <path d="M0 330 Q150 305 300 330 T600 330 V420 H0 Z" fill="#4ADE80"/>

  <!-- Big red apple -->
  <g>
    <path d="M270 90 Q265 75 250 78" stroke="#65A30D" stroke-width="6" fill="none" stroke-linecap="round"/>
    <ellipse cx="255" cy="80" rx="16" ry="9" fill="#65A30D" transform="rotate(-25 255 80)"/>
    <rect x="262" y="65" width="7" height="24" fill="#78350F" rx="3"/>
    <path d="M265 95 C210 95 185 150 190 195 C195 245 240 275 265 275 C290 275 335 245 340 195 C345 150 320 95 265 95 Z" fill="#EF4444"/>
    <ellipse cx="235" cy="140" rx="18" ry="26" fill="#FCA5A5" opacity="0.6"/>
  </g>

  <!-- sparkle -->
  <g fill="#FDE68A">
    <path d="M420 110 l6 16 16 6 -16 6 -6 16 -6 -16 -16 -6 16 -6 Z"/>
  </g>

  <!-- Benny the blue bunny (waving paw toward the apple) -->
  <g>
    <ellipse cx="470" cy="180" rx="18" ry="50" fill="#60A5FA" transform="rotate(-18 440 170)"/>
    <ellipse cx="500" cy="180" rx="18" ry="50" fill="#60A5FA" transform="rotate(18 500 170)"/>
    <ellipse cx="440" cy="167" rx="8" ry="32" fill="#FCE7F3" transform="rotate(-18 440 167)"/>
    <ellipse cx="500" cy="167" rx="8" ry="32" fill="#FCE7F3" transform="rotate(18 500 167)"/>

    <ellipse cx="470" cy="320" rx="66" ry="80" fill="#60A5FA"/>
    <ellipse cx="470" cy="338" rx="40" ry="48" fill="#EFF6FF"/>

    <circle cx="470" cy="230" r="52" fill="#60A5FA"/>
    <circle cx="453" cy="225" r="6" fill="#1E293B"/>
    <circle cx="487" cy="225" r="6" fill="#1E293B"/>
    <ellipse cx="470" cy="242" rx="6" ry="4" fill="#F9A8D4"/>
    <path d="M456 252 Q470 262 484 252" stroke="#1E293B" stroke-width="3" fill="none" stroke-linecap="round"/>

    <!-- raised paw waving hello -->
    <ellipse cx="410" cy="270" rx="14" ry="18" fill="#60A5FA" transform="rotate(-35 410 270)"/>

    <ellipse cx="430" cy="390" rx="18" ry="12" fill="#3B82F6"/>
    <ellipse cx="510" cy="390" rx="18" ry="12" fill="#3B82F6"/>
  </g>
</svg>
